<svg xmlns="http://www.w3.org/2000/svg" style="display:none">
  <!-- Font Awesome Free 6.x Icons - selected subset for tw-canslim-web -->
  <!-- 2026-05-31 Hermes Agent: Inline SVG icons replacing font-awesome CDN -->

  <!-- solid/chart-line (chart-line) -->
  <symbol id="icon-chart-line" viewBox="0 0 512 512">
    <path d="M64 64c0-17.7-14.3-32-32-32S0 46.3 0 64L0 400c0 44.2 35.8 80 80 80l400 0c17.7 0 32-14.3 32-32s-14.3-32-32-32L80 416c-8.8 0-16-7.2-16-16L64 64zm406.6 86.6c12.5-12.5 12.5-32.8 0-45.3s-32.8-12.5-45.3 0L320 210.7l-57.4-57.4c-12.5-12.5-32.8-12.5-45.3 0l-112 112c-12.5 12.5-12.5 32.8 0 45.3s32.8 12.5 45.3 0L240 221.3l57.4 57.4c12.5 12.5 32.8 12.5 45.3 0l128-128z"/>
  </symbol>

  <!-- solid/database -->
  <symbol id="icon-database" viewBox="0 0 448 512">
    <path d="M448 80l0 48c0 44.2-100.3 80-224 80S0 172.2 0 128L0 80C0 35.8 100.3 0 224 0S448 35.8 448 80zM393.2 214.7c20.8-7.4 39.9-16.9 54.8-28.6L448 288c0 44.2-100.3 80-224 80S0 332.2 0 288L0 186.1c14.9 11.8 34 21.2 54.8 28.6C99.7 230.7 159.5 240 224 240s124.3-9.3 169.2-25.3zM0 346.1c14.9 11.8 34 21.2 54.8 28.6C99.7 390.7 159.5 400 224 400s124.3-9.3 169.2-25.3c20.8-7.4 39.9-16.9 54.8-28.6l0 101.9c0 44.2-100.3 80-224 80S0 492.2 0 448l0-101.9z"/>
  </symbol>

  <!-- solid/triangle-exclamation -->
  <symbol id="icon-triangle-exclamation" viewBox="0 0 512 512">
    <path d="M256 32c14.2 0 27.3 7.5 33.5 19.4l208 384c6.3 11.6 6.1 25.4-.6 36.8s-17.3 19.8-30 19.8L45.1 492c-12.7 0-24.4-6.4-30-19.8s-6.9-25.2-.6-36.8l208-384C228.7 39.5 241.8 32 256 32zM224 352l0 48c0 17.7 14.3 32 32 32s32-14.3 32-32l0-48c0-17.7-14.3-32-32-32s-32 14.3-32 32zm32-112c-13.3 0-24 10.7-24 24l0 16c0 13.3 10.7 24 24 24s24-10.7 24-24l0-16c0-13.3-10.7-24-24-24z"/>
  </symbol>

  <!-- solid/fire-flame-curved -->
  <symbol id="icon-fire-flame-curved" viewBox="0 0 384 512">
    <path d="M153.6 29.9l16-21.3C173.6 3.2 180 0 186.7 0C198.5 0 208 9.5 208 21.3l0 0c0 5.8-2.4 11.4-6.6 15.4c-13.4 12.7-32.7 31-47.8 47.6c-30.7 33.7-57.5 67.4-76.4 99.1C55.3 220 48 249 48 277.1C48 358 107.9 416 192 416s144-58 144-138.9c0-80.8-52.6-157.5-126.5-203.8c-10.1-6.3-16.4-17.4-16.4-29.5c0-8.5 3.4-16.6 9.3-22.7L192 0l.1 0 0 0C186 6.8 173.2 20.8 153.6 29.9zM192 128c44.2 0 80 35.8 80 80c0 20.3-7.5 38.8-20 53.1c-7.1 8.2-12.1 18.3-14 29.4c-1.8 10.8-8.7 19.7-18.7 24.5c-19.5 9.4-42.9 5.3-57.9-10.5c-12.1-12.8-17.5-30.3-14.5-47.9c.8-4.8 2.2-9.5 4.2-13.9c4.5-10.1 13.3-18.1 23.8-21.6c6.7-2.2 12.3-7.7 14.6-14.5c2.6-7.7 1.9-15.9-1.8-23c-4-7.7-6.7-16.2-6.7-25.3c0-7.8 2.4-15.1 6.5-21.2c2.5-3.7 6.3-6.5 10.7-8c4.5-1.5 9.2-1.1 13.4 1.1c7.4 4 13 10.4 16.3 17.9z"/>
  </symbol>

  <!-- solid/list-ol -->
  <symbol id="icon-list-ol" viewBox="0 0 512 512">
    <path d="M24 56c0-13.3 10.7-24 24-24l32 0c13.3 0 24 10.7 24 24l0 32 8 0c13.3 0 24 10.7 24 24s-10.7 24-24 24l-8 0 0 64c0 13.3-10.7 24-24 24s-24-10.7-24-24l0-120-8 0C34.7 80 24 69.3 24 56zM86.7 341.2c-6.5-7.4-18.3-6.9-24 1.2L51.5 357.9c-7.5 10.8-22.1 13.5-32.9 6s-13.5-22.1-6-32.9l11.2-15.6c23.7-33.2 72.3-35.6 99.2-4.9c21.3 24.4 20.8 60.9-1.1 84.7L86.8 432l33.2 0c13.3 0 24 10.7 24 24s-10.7 24-24 24l-88 0c-9.5 0-18.2-5.6-22-14.4s-2.1-18.9 4.3-25.3l70-76.2c5.1-5.6 5-14.2-.3-19.8zM224 64l272 0c8.8 0 16 7.2 16 16s-7.2 16-16 16L224 96c-8.8 0-16-7.2-16-16s7.2-16 16-16zm0 160l272 0c8.8 0 16 7.2 16 16s-7.2 16-16 16L224 256c-8.8 0-16-7.2-16-16s7.2-16 16-16zm0 160l272 0c8.8 0 16 7.2 16 16s-7.2 16-16 16L224 432c-8.8 0-16-7.2-16-16s7.2-16 16-16z"/>
  </symbol>

  <!-- solid/trophy -->
  <symbol id="icon-trophy" viewBox="0 0 576 512">
    <path d="M400 0L176 0c-26.5 0-48.1 21.8-47.1 48.2c.2 5.3 .4 10.6 .7 15.8L24 64C10.7 64 0 74.7 0 88c0 92.6 33.6 173.1 86.6 228.9c26.8 28.1 60.1 49.9 97.5 63.4c7.4 30.6 21.4 56.9 38.6 77.3c15.4 18.2 32.5 31.8 49.3 39.3l0 19.2 0 24 0 16c0 13.3 10.7 24 24 24l48 0c13.3 0 24-10.7 24-24l0-16 0-24 0-19.2c16.9-7.5 34-21.1 49.3-39.3c17.2-20.4 31.2-46.7 38.6-77.3c37.5-13.5 70.7-35.3 97.5-63.4C542.4 261.1 576 180.6 576 88c0-13.3-10.7-24-24-24L446.4 64c.3-5.2 .5-10.4 .7-15.8C448.1 21.8 426.5 0 400 0zM48.9 112l84.4 0c6.5 60.4 27 115.9 60.1 162.7c-31.7-16.3-59.7-40.8-82-71.4C81.9 174.8 58.2 145.5 48.9 112zm387.7 91.3c-22.3 30.6-50.3 55.1-82 71.4c33.1-46.8 53.6-102.3 60.1-162.7l84.4 0c-9.3 33.5-33 62.8-62.5 91.3z"/>
  </symbol>

  <!-- solid/filter -->
  <symbol id="icon-filter" viewBox="0 0 512 512">
    <path d="M3.9 54.9C10.5 40.9 24.5 32 40 32l432 0c15.5 0 29.5 8.9 36.1 22.9s4.6 30.5-5.2 42.5L320 320.9 320 448c0 12.1-6.8 23.3-17.5 28.9s-24 5.6-34.1-.9l-96-64c-8.5-5.7-12.4-15.5-10.5-25.1s8.5-16.1 18.1-18.1L224 361.7l0-40.8L9.1 97.5C-.8 85.4-2.7 68.9 3.9 54.9z"/>
  </symbol>

  <!-- solid/search (magnifying-glass) -->
  <symbol id="icon-search" viewBox="0 0 512 512">
    <path d="M416 208c0 45.9-14.9 88.3-40 122.7L502.6 457.4c12.5 12.5 12.5 32.8 0 45.3s-32.8 12.5-45.3 0L330.7 376c-34.4 25.2-76.8 40-122.7 40C93.1 416 0 322.9 0 208S93.1 0 208 0S416 93.1 416 208zM208 352a144 144 0 1 0 0-288 144 144 0 1 0 0 288z"/>
  </symbol>

  <!-- solid/times-circle (xmark-circle) -->
  <symbol id="icon-times-circle" viewBox="0 0 512 512">
    <path d="M256 512A256 256 0 1 0 256 0a256 256 0 1 0 0 512zM175 175c9.4-9.4 24.6-9.4 33.9 0l47 47 47-47c9.4-9.4 24.6-9.4 33.9 0s9.4 24.6 0 33.9l-47 47 47 47c9.4 9.4 9.4 24.6 0 33.9s-24.6 9.4-33.9 0l-47-47-47 47c-9.4 9.4-24.6 9.4-33.9 0s-9.4-24.6 0-33.9l47-47-47-47c-9.4-9.4-9.4-24.6 0-33.9z"/>
  </symbol>

  <!-- solid/arrow-left -->
  <symbol id="icon-arrow-left" viewBox="0 0 448 512">
    <path d="M9.4 233.4c-12.5 12.5-12.5 32.8 0 45.3l160 160c12.5 12.5 32.8 12.5 45.3 0s12.5-32.8 0-45.3L109.2 288 416 288c17.7 0 32-14.3 32-32s-14.3-32-32-32l-306.8 0L214.6 118.6c12.5-12.5 12.5-32.8 0-45.3s-32.8-12.5-45.3 0l-160 160z"/>
  </symbol>

  <!-- solid/industry -->
  <symbol id="icon-industry" viewBox="0 0 576 512">
    <path d="M64 32C46.3 32 32 46.3 32 64l0 304 0 48c0 44.2 35.8 80 80 80l368 0c44.2 0 80-35.8 80-80l0-48 0-50.5c0-20-10.7-38.5-27.8-48.8l-103.8-62.3c-9.4-5.6-20.6-7.7-31.3-5.8s-20.3 7.2-27.2 15.6L352 188.8l0-60.8 0-16 0-48c0-17.7-14.3-32-32-32L96 32c-17.7 0-32 14.3-32 32zM128 176l0 64c0 8.8 7.2 16 16 16l64 0c8.8 0 16-7.2 16-16l0-64c0-8.8-7.2-16-16-16l-64 0c-8.8 0-16 7.2-16 16zm144 16l64 0c8.8 0 16-7.2 16-16l0-64c0-8.8-7.2-16-16-16l-64 0c-8.8 0-16 7.2-16 16l0 64c0 8.8 7.2 16 16 16zm-144 96l0 64c0 8.8 7.2 16 16 16l64 0c8.8 0 16-7.2 16-16l0-64c0-8.8-7.2-16-16-16l-64 0c-8.8 0-16 7.2-16 16z"/>
  </symbol>

  <!-- solid/ranking-star -->
  <symbol id="icon-ranking-star" viewBox="0 0 640 512">
    <path d="M353.8 54.1L330.2 6.3c-3.9-8.3-16.1-8.6-20.4 0L286.2 54.1l-54.3 7.9c-9.3 1.4-13.1 12.8-6.3 19.4l39.3 38.3-9.3 54.1c-1.6 9.3 8.2 16.5 16.6 12l48.5-25.5 48.5 25.5c8.4 4.4 18.2-2.7 16.6-12l-9.3-54.1 39.3-38.3c6.8-6.6 3-18-6.3-19.4l-54.3-7.9zM192 256l-48 0-48 0c-35.3 0-64 28.7-64 64l0 128c0 35.3 28.7 64 64 64l16 0 0 0 32 0 32 0c0-17.7 0-54.1 0-96l0-128c0-17.7-14.3-32-32-32zm128-64l-32 0c-17.7 0-32 14.3-32 32l0 224c0 17.7 14.3 32 32 32l32 0c17.7 0 32-14.3 32-32l0-224c0-17.7-14.3-32-32-32zm160 64l-16 0-16 0c-17.7 0-32 14.3-32 32l0 192c0 17.7 14.3 32 32 32l32 0c17.7 0 32-14.3 32-32l0-192c0-17.7-14.3-32-32-32z"/>
  </symbol>

  <!-- solid/circle-check -->
  <symbol id="icon-circle-check" viewBox="0 0 512 512">
    <path d="M256 512A256 256 0 1 0 256 0a256 256 0 1 0 0 512zM369 209L241 337c-9.4 9.4-24.6 9.4-33.9 0l-64-64c-9.4-9.4-9.4-24.6 0-33.9s24.6-9.4 33.9 0l47 47L335 175c9.4-9.4 24.6-9.4 33.9 0s9.4 24.6 0 33.9z"/>
  </symbol>

  <!-- solid/circle-minus -->
  <symbol id="icon-circle-minus" viewBox="0 0 512 512">
    <path d="M256 512A256 256 0 1 0 256 0a256 256 0 1 0 0 512zM184 232l144 0c13.3 0 24 10.7 24 24s-10.7 24-24 24l-144 0c-13.3 0-24-10.7-24-24s10.7-24 24-24z"/>
  </symbol>

  <!-- solid/chart-pie -->
  <symbol id="icon-chart-pie" viewBox="0 0 576 512">
    <path d="M304 240l0-223.4c0-9 7-16.6 15.9-16.6C443.7 0 544 100.3 544 224c0 8.9-7.6 16-16.6 16L304 240zM32 272C32 150.7 122.1 50.3 239 34.3c9.2-1.3 17 6.1 17 15.4L256 288 412.5 444.5c6.7 6.7 6.2 17.7-1.5 23.2C371.8 495.6 323.8 512 272 512C139.5 512 32 404.6 32 272zm526.4 16c9.3 0 16.6 7.8 15.4 17c-7.7 55.9-34.6 105.6-73.9 142.3c-6 5.6-15.4 5.2-21-.8L416 288l142.4 0z"/>
  </symbol>

  <!-- solid/filter-circle-dollar -->
  <symbol id="icon-filter-circle-dollar" viewBox="0 0 576 512">
    <path d="M3.9 54.9C10.5 40.9 24.5 32 40 32l432 0c15.5 0 29.5 8.9 36.1 22.9s4.6 30.5-5.2 42.5L345.2 274.4c-2.4-8.6-6.1-16.7-11-24.1c28.9-17.8 46.8-49.8 46.8-86.3c0-55.2-44.8-100-100-100L208 64c-55.2 0-100 44.8-100 100s44.8 100 100 100c6.7 0 13.2-.7 19.5-1.9c7.8 19.8 20.1 37.2 35.7 50.3L192 377.4l0 70.6c0 12.1-6.8 23.3-17.5 28.9s-24 5.6-34.1-.9l-96-64c-8.5-5.7-12.4-15.5-10.5-25.1s8.5-16.1 18.1-18.1L224 361.7l0-40.8L9.1 97.5C-.8 85.4-2.7 68.9 3.9 54.9zM352 224a112 112 0 1 1 0 224 112 112 0 1 1 0-224zm10.3 151.3c2.1-1.4 4.2-2.9 6.5-4.1c5.6-3 11.9-4.7 18.4-4.7c4.8 0 9.6 .9 13.9 2.4c4.1 1.5 8.4 3.4 12.2 5.7c4.2 2.6 9.5 2.3 12.9-1.4c3.8-4.2 3.4-10.8-.7-14.3c-5.9-5-12.8-9-20.3-11.7c-1.8-.6-3.6-1.2-5.5-1.6l0-16.3c0-5.6-4.5-10.1-10.1-10.1s-10.1 4.5-10.1 10.1l0 15.7c-9.4 1.2-17.5 5.9-23.2 12.6c-6.7 7.8-9.4 17.4-7.8 26.8c1.6 9.5 7.7 17.7 16.3 23.2c5.9 3.8 12.5 6.2 19.2 7.7l2.8 .6c9.7 1.9 15.2 5.4 17.2 9.5c1.6 3.2 1.9 6.9 .2 10.7c-1.6 3.6-4.9 6.7-9.3 8.7c-4.1 1.9-8.6 2.7-13.3 2.7c-4.8 0-9.5-.9-13.9-2.4c-3.9-1.4-7.8-3.1-11.5-5.1c-4.1-2.3-9.4-1.7-12.5 1.9c-3.5 4-3.1 10.1 .9 13.4c6.1 5 13.2 8.9 20.9 11.4l0 16.6c0 5.6 4.5 10.1 10.1 10.1s10.1-4.5 10.1-10.1l0-16.5c8.6-1.5 15.8-5.9 20.8-12c6.2-7.5 8.8-16.9 7.1-26.5c-1.7-9.8-7.8-18.2-16.5-23.7c-1.8-1.1-3.6-2.1-5.5-3c-5.1-2.6-10.6-4.3-16.2-5.2l-2.1-.3c-8.1-1.2-14.3-3.9-18-7.8c-2.9-3-3.9-6.9-3.1-10.7c.8-3.5 2.8-6.7 5.9-9z"/>
  </symbol>

  <!-- solid/ghost -->
  <symbol id="icon-ghost" viewBox="0 0 384 512">
    <path d="M40.1 467.1l-11.2 9c-3.2 2.5-7.1 3.9-11.1 3.9C8 480 0 472 0 462.2L0 192C0 86 86 0 192 0S384 86 384 192l0 270.2c0 9.8-8 17.8-17.8 17.8c-4 0-7.9-1.4-11.1-3.9l-11.2-9c-13.4-10.7-32.8-9-44.1 3.9L269.3 506c-3.3 3.8-8.2 6-13.3 6s-9.9-2.2-13.3-6l-26.6-30.5c-12.7-14.6-35.4-14.6-48.2 0L141.3 506c-3.3 3.8-8.2 6-13.3 6s-9.9-2.2-13.3-6L84.2 471c-11.3-12.9-30.7-14.6-44.1-3.9zM128 192a32 32 0 1 0 0-64 32 32 0 1 0 0 64zm128 0a32 32 0 1 0 0-64 32 32 0 1 0 0 64z"/>
  </symbol>

  <!-- regular/clock -->
  <symbol id="icon-clock" viewBox="0 0 512 512">
    <path d="M464 256A208 208 0 1 1 48 256a208 208 0 1 1 416 0zM0 256a256 256 0 1 0 512 0A256 256 0 1 0 0 256zM232 120l0 136c0 8 4 15.5 10.7 20l96 64c11 7.4 25.9 4.4 33.3-6.7s4.4-25.9-6.7-33.3L280 243.2 280 120c0-13.3-10.7-24-24-24s-24 10.7-24 24z"/>
  </symbol>

  <!-- regular/calendar-check -->
  <symbol id="icon-calendar-check" viewBox="0 0 448 512">
    <path d="M128 0c13.3 0 24 10.7 24 24l0 40 144 0 0-40c0-13.3 10.7-24 24-24s24 10.7 24 24l0 40 40 0c35.3 0 64 28.7 64 64l0 16 0 48 0 256c0 35.3-28.7 64-64 64L64 512c-35.3 0-64-28.7-64-64L0 192l0-48 0-16C0 92.7 28.7 64 64 64l40 0 0-40c0-13.3 10.7-24 24-24zM400 192L48 192l0 256c0 8.8 7.2 16 16 16l320 0c8.8 0 16-7.2 16-16l0-256zM329 305c9.4-9.4 9.4-24.6 0-33.9s-24.6-9.4-33.9 0l-95 95-47-47c-9.4-9.4-24.6-9.4-33.9 0s-9.4 24.6 0 33.9l64 64c9.4 9.4 24.6 9.4 33.9 0L329 305z"/>
  </symbol>

  <!-- brands/github -->
  <symbol id="icon-github" viewBox="0 0 496 512">
    <path d="M165.9 397.4c0 2-2.3 3.6-5.2 3.6-3.3.3-5.6-1.3-5.6-3.6 0-2 2.3-3.6 5.2-3.6 3-.3 5.6 1.3 5.6 3.6zm-31.1-4.5c-.7 2 1.3 4.3 4.3 4.9 2.6 1 5.6 0 6.2-2s-1.3-4.3-4.3-5.2c-2.6-.7-5.5.3-6.2 2.3zm44.2-1.7c-2.9.7-4.9 2.6-4.6 4.9.3 2 2.9 3.3 5.9 2.6 2.9-.7 4.9-2.6 4.6-4.6-.3-1.9-3-3.2-5.9-2.9zM244.8 8C106.1 8 0 113.3 0 252c0 110.9 69.8 205.8 169.5 239.2 12.8 2.3 17.3-5.6 17.3-12.1 0-6.2-.3-40.4-.3-61.4 0 0-70 15-84.7-29.8 0 0-11.4-29.1-27.8-36.6 0 0-22.9-15.7 1.6-15.4 0 0 24.9 2 38.6 25.8 21.9 38.6 58.6 27.5 72.9 20.9 2.3-16.3 8.8-27.5 16-33.7-55.7-6.2-112.3-14.3-112.3-110.5 0-27.5 7.6-41.3 23.6-58.9-2.6-6.5-11.1-33.3 2.6-67.9 20.9-6.5 69 27 69 27 20-5.6 41.5-8.5 62.8-8.5s42.8 2.9 62.8 8.5c0 0 48.1-33.6 69-27 13.7 34.7 5.2 61.4 2.6 67.9 16 17.7 25.8 31.5 25.8 58.9 0 96.5-58.9 104.2-114.8 110.5 9.2 7.9 17 22.9 17 46.4 0 33.7-.3 75.4-.3 83.6 0 6.5 4.6 14.4 17.3 12.1C428.2 457.8 496 362.9 496 252 496 113.3 383.5 8 244.8 8zM97.2 352.9c-1.3 1-1 3.3.7 5.2 1.6 1.6 3.9 2.3 5.2 1 1.3-1 1-3.3-.7-5.2-1.6-1.6-3.9-2.3-5.2-1zm-10.8-8.1c-.7 1.3.3 2.9 2.3 3.9 1.6 1 3.6.7 4.3-.7.7-1.3-.3-2.9-2.3-3.9-2-.6-3.6-.3-4.3.7zm32.4 35.6c-1.6 1.3-1 4.3 1.3 6.2 2.3 2.3 5.2 2.6 6.5 1 1.3-1.3.7-4.3-1.3-6.2-2.2-2.3-5.2-2.6-6.5-1zm-11.4-14.7c-1.6 1-1.6 3.6 0 5.9 1.6 2.3 4.3 3.3 5.6 2.3 1.6-1.3 1.6-3.9 0-6.2-1.4-2.3-4-3.3-5.6-2z"/>
  </symbol>

  <!-- solid/envelope -->
  <symbol id="icon-envelope" viewBox="0 0 512 512">
    <path d="M48 64C21.5 64 0 85.5 0 112c0 15.1 7.1 29.3 19.2 38.4L236.8 313.6c11.4 8.5 27 8.5 38.4 0L492.8 150.4c12.1-9.1 19.2-23.3 19.2-38.4c0-26.5-21.5-48-48-48L48 64zM0 176L0 384c0 35.3 28.7 64 64 64l384 0c35.3 0 64-28.7 64-64l0-208L294.4 339.2c-22.8 17.1-54 17.1-76.8 0L0 176z"/>
  </symbol>

</svg>
